<mxfile host="app.diagrams.net" modified="2024-04-24T13:37:57.121Z" agent="Mozilla/5.0 (Windows NT 10.0; Win64; x64) AppleWebKit/537.36 (KHTML, like Gecko) Chrome/124.0.0.0 Safari/537.36" etag="tKn2KugUJEAZe-mZBvgk" version="24.2.8" type="device">
  <diagram name="PÃ¡gina-1" id="nDEmlHGQ0mYqlffiwrJH">
    <mxGraphModel dx="2874" dy="732" grid="0" gridSize="10" guides="1" tooltips="1" connect="1" arrows="1" fold="1" page="0" pageScale="1" pageWidth="827" pageHeight="1169" math="0" shadow="0">
      <root>
        <mxCell id="0" />
        <mxCell id="1" parent="0" />
        <mxCell id="CxRBxOx3f64PLH3rQCwO-1" value="Table" style="swimlane;fontStyle=1;align=center;verticalAlign=middle;childLayout=stackLayout;horizontal=1;startSize=29;horizontalStack=0;resizeParent=1;resizeParentMax=0;resizeLast=0;collapsible=0;marginBottom=0;html=1;whiteSpace=wrap;" parent="1" vertex="1">
          <mxGeometry x="409" y="639.5" width="140" height="54" as="geometry" />
        </mxCell>
        <mxCell id="CxRBxOx3f64PLH3rQCwO-86" value="CutleryQuantity" style="text;html=1;strokeColor=none;fillColor=none;align=center;verticalAlign=middle;spacingLeft=4;spacingRight=4;overflow=hidden;rotatable=0;points=[[0,0.5],[1,0.5]];portConstraint=eastwest;whiteSpace=wrap;" parent="CxRBxOx3f64PLH3rQCwO-1" vertex="1">
          <mxGeometry y="29" width="140" height="25" as="geometry" />
        </mxCell>
        <mxCell id="CxRBxOx3f64PLH3rQCwO-23" style="edgeStyle=orthogonalEdgeStyle;rounded=0;orthogonalLoop=1;jettySize=auto;html=1;" parent="1" source="CxRBxOx3f64PLH3rQCwO-4" target="CxRBxOx3f64PLH3rQCwO-7" edge="1">
          <mxGeometry relative="1" as="geometry" />
        </mxCell>
        <mxCell id="CxRBxOx3f64PLH3rQCwO-4" value="Client" style="swimlane;fontStyle=1;align=center;verticalAlign=middle;childLayout=stackLayout;horizontal=1;startSize=29;horizontalStack=0;resizeParent=1;resizeParentMax=0;resizeLast=0;collapsible=0;marginBottom=0;html=1;whiteSpace=wrap;" parent="1" vertex="1">
          <mxGeometry x="-76.25" y="577" width="196.5" height="179" as="geometry" />
        </mxCell>
        <mxCell id="CxRBxOx3f64PLH3rQCwO-10" value="Key" style="text;html=1;strokeColor=none;fillColor=none;align=center;verticalAlign=middle;spacingLeft=4;spacingRight=4;overflow=hidden;rotatable=0;points=[[0,0.5],[1,0.5]];portConstraint=eastwest;whiteSpace=wrap;" parent="CxRBxOx3f64PLH3rQCwO-4" vertex="1">
          <mxGeometry y="29" width="196.5" height="25" as="geometry" />
        </mxCell>
        <mxCell id="CxRBxOx3f64PLH3rQCwO-13" value="Name" style="text;html=1;strokeColor=none;fillColor=none;align=center;verticalAlign=middle;spacingLeft=4;spacingRight=4;overflow=hidden;rotatable=0;points=[[0,0.5],[1,0.5]];portConstraint=eastwest;whiteSpace=wrap;" parent="CxRBxOx3f64PLH3rQCwO-4" vertex="1">
          <mxGeometry y="54" width="196.5" height="25" as="geometry" />
        </mxCell>
        <mxCell id="CxRBxOx3f64PLH3rQCwO-12" value="Last Name" style="text;html=1;strokeColor=none;fillColor=none;align=center;verticalAlign=middle;spacingLeft=4;spacingRight=4;overflow=hidden;rotatable=0;points=[[0,0.5],[1,0.5]];portConstraint=eastwest;whiteSpace=wrap;" parent="CxRBxOx3f64PLH3rQCwO-4" vertex="1">
          <mxGeometry y="79" width="196.5" height="25" as="geometry" />
        </mxCell>
        <mxCell id="CxRBxOx3f64PLH3rQCwO-11" value="DNI" style="text;html=1;strokeColor=none;fillColor=none;align=center;verticalAlign=middle;spacingLeft=4;spacingRight=4;overflow=hidden;rotatable=0;points=[[0,0.5],[1,0.5]];portConstraint=eastwest;whiteSpace=wrap;" parent="CxRBxOx3f64PLH3rQCwO-4" vertex="1">
          <mxGeometry y="104" width="196.5" height="25" as="geometry" />
        </mxCell>
        <mxCell id="CxRBxOx3f64PLH3rQCwO-83" value="Category" style="text;html=1;strokeColor=none;fillColor=none;align=center;verticalAlign=middle;spacingLeft=4;spacingRight=4;overflow=hidden;rotatable=0;points=[[0,0.5],[1,0.5]];portConstraint=eastwest;whiteSpace=wrap;" parent="CxRBxOx3f64PLH3rQCwO-4" vertex="1">
          <mxGeometry y="129" width="196.5" height="25" as="geometry" />
        </mxCell>
        <mxCell id="CxRBxOx3f64PLH3rQCwO-84" value="TucsonSubscriptionNumber" style="text;html=1;strokeColor=none;fillColor=none;align=center;verticalAlign=middle;spacingLeft=4;spacingRight=4;overflow=hidden;rotatable=0;points=[[0,0.5],[1,0.5]];portConstraint=eastwest;whiteSpace=wrap;" parent="CxRBxOx3f64PLH3rQCwO-4" vertex="1">
          <mxGeometry y="154" width="196.5" height="25" as="geometry" />
        </mxCell>
        <mxCell id="CxRBxOx3f64PLH3rQCwO-7" value="Category" style="swimlane;fontStyle=1;align=center;verticalAlign=middle;childLayout=stackLayout;horizontal=1;startSize=29;horizontalStack=0;resizeParent=1;resizeParentMax=0;resizeLast=0;collapsible=0;marginBottom=0;html=1;whiteSpace=wrap;" parent="1" vertex="1">
          <mxGeometry x="-279" y="639.5" width="140" height="54" as="geometry" />
        </mxCell>
        <mxCell id="CxRBxOx3f64PLH3rQCwO-8" value="Name" style="text;html=1;strokeColor=none;fillColor=none;align=center;verticalAlign=middle;spacingLeft=4;spacingRight=4;overflow=hidden;rotatable=0;points=[[0,0.5],[1,0.5]];portConstraint=eastwest;whiteSpace=wrap;" parent="CxRBxOx3f64PLH3rQCwO-7" vertex="1">
          <mxGeometry y="29" width="140" height="25" as="geometry" />
        </mxCell>
        <mxCell id="CxRBxOx3f64PLH3rQCwO-24" style="edgeStyle=orthogonalEdgeStyle;rounded=0;orthogonalLoop=1;jettySize=auto;html=1;" parent="1" source="CxRBxOx3f64PLH3rQCwO-15" target="CxRBxOx3f64PLH3rQCwO-1" edge="1">
          <mxGeometry relative="1" as="geometry" />
        </mxCell>
        <mxCell id="CxRBxOx3f64PLH3rQCwO-33" style="edgeStyle=orthogonalEdgeStyle;rounded=0;orthogonalLoop=1;jettySize=auto;html=1;" parent="1" source="CxRBxOx3f64PLH3rQCwO-15" target="CxRBxOx3f64PLH3rQCwO-4" edge="1">
          <mxGeometry relative="1" as="geometry" />
        </mxCell>
        <mxCell id="CxRBxOx3f64PLH3rQCwO-15" value="Reservation" style="swimlane;fontStyle=1;align=center;verticalAlign=middle;childLayout=stackLayout;horizontal=1;startSize=29;horizontalStack=0;resizeParent=1;resizeParentMax=0;resizeLast=0;collapsible=0;marginBottom=0;html=1;whiteSpace=wrap;" parent="1" vertex="1">
          <mxGeometry x="203" y="614.5" width="140" height="104" as="geometry" />
        </mxCell>
        <mxCell id="CxRBxOx3f64PLH3rQCwO-16" value="Client" style="text;html=1;strokeColor=none;fillColor=none;align=center;verticalAlign=middle;spacingLeft=4;spacingRight=4;overflow=hidden;rotatable=0;points=[[0,0.5],[1,0.5]];portConstraint=eastwest;whiteSpace=wrap;" parent="CxRBxOx3f64PLH3rQCwO-15" vertex="1">
          <mxGeometry y="29" width="140" height="25" as="geometry" />
        </mxCell>
        <mxCell id="CxRBxOx3f64PLH3rQCwO-27" value="Table" style="text;html=1;strokeColor=none;fillColor=none;align=center;verticalAlign=middle;spacingLeft=4;spacingRight=4;overflow=hidden;rotatable=0;points=[[0,0.5],[1,0.5]];portConstraint=eastwest;whiteSpace=wrap;" parent="CxRBxOx3f64PLH3rQCwO-15" vertex="1">
          <mxGeometry y="54" width="140" height="25" as="geometry" />
        </mxCell>
        <mxCell id="CxRBxOx3f64PLH3rQCwO-80" value="Daytime" style="text;html=1;strokeColor=none;fillColor=none;align=center;verticalAlign=middle;spacingLeft=4;spacingRight=4;overflow=hidden;rotatable=0;points=[[0,0.5],[1,0.5]];portConstraint=eastwest;whiteSpace=wrap;" parent="CxRBxOx3f64PLH3rQCwO-15" vertex="1">
          <mxGeometry y="79" width="140" height="25" as="geometry" />
        </mxCell>
        <mxCell id="CxRBxOx3f64PLH3rQCwO-30" style="edgeStyle=orthogonalEdgeStyle;rounded=0;orthogonalLoop=1;jettySize=auto;html=1;" parent="1" source="CxRBxOx3f64PLH3rQCwO-18" target="CxRBxOx3f64PLH3rQCwO-4" edge="1">
          <mxGeometry relative="1" as="geometry" />
        </mxCell>
        <mxCell id="CxRBxOx3f64PLH3rQCwO-18" value="WaitingList" style="swimlane;fontStyle=1;align=center;verticalAlign=middle;childLayout=stackLayout;horizontal=1;startSize=29;horizontalStack=0;resizeParent=1;resizeParentMax=0;resizeLast=0;collapsible=0;marginBottom=0;html=1;whiteSpace=wrap;" parent="1" vertex="1">
          <mxGeometry x="-48" y="803.5" width="140" height="54" as="geometry" />
        </mxCell>
        <mxCell id="CxRBxOx3f64PLH3rQCwO-26" value="Clients" style="text;html=1;strokeColor=none;fillColor=none;align=center;verticalAlign=middle;spacingLeft=4;spacingRight=4;overflow=hidden;rotatable=0;points=[[0,0.5],[1,0.5]];portConstraint=eastwest;whiteSpace=wrap;" parent="CxRBxOx3f64PLH3rQCwO-18" vertex="1">
          <mxGeometry y="29" width="140" height="25" as="geometry" />
        </mxCell>
        <mxCell id="CxRBxOx3f64PLH3rQCwO-34" value="Class diagram" style="text;html=1;align=center;verticalAlign=middle;resizable=0;points=[];autosize=1;strokeColor=none;fillColor=none;fontSize=48;" parent="1" vertex="1">
          <mxGeometry x="-402" y="473" width="325" height="70" as="geometry" />
        </mxCell>
        <mxCell id="CxRBxOx3f64PLH3rQCwO-35" value="DER" style="text;html=1;align=center;verticalAlign=middle;resizable=0;points=[];autosize=1;strokeColor=none;fillColor=none;fontSize=48;" parent="1" vertex="1">
          <mxGeometry x="-402" y="1028" width="119" height="70" as="geometry" />
        </mxCell>
        <mxCell id="CxRBxOx3f64PLH3rQCwO-36" value="Table" style="swimlane;fontStyle=1;align=center;verticalAlign=middle;childLayout=stackLayout;horizontal=1;startSize=29;horizontalStack=0;resizeParent=1;resizeParentMax=0;resizeLast=0;collapsible=0;marginBottom=0;html=1;whiteSpace=wrap;" parent="1" vertex="1">
          <mxGeometry x="585" y="1220" width="140" height="79" as="geometry" />
        </mxCell>
        <mxCell id="CxRBxOx3f64PLH3rQCwO-71" value="Id" style="text;html=1;strokeColor=none;fillColor=none;align=center;verticalAlign=middle;spacingLeft=4;spacingRight=4;overflow=hidden;rotatable=0;points=[[0,0.5],[1,0.5]];portConstraint=eastwest;whiteSpace=wrap;" parent="CxRBxOx3f64PLH3rQCwO-36" vertex="1">
          <mxGeometry y="29" width="140" height="25" as="geometry" />
        </mxCell>
        <mxCell id="CxRBxOx3f64PLH3rQCwO-85" value="CutleryQuantity" style="text;html=1;strokeColor=none;fillColor=none;align=center;verticalAlign=middle;spacingLeft=4;spacingRight=4;overflow=hidden;rotatable=0;points=[[0,0.5],[1,0.5]];portConstraint=eastwest;whiteSpace=wrap;" parent="CxRBxOx3f64PLH3rQCwO-36" vertex="1">
          <mxGeometry y="54" width="140" height="25" as="geometry" />
        </mxCell>
        <mxCell id="CxRBxOx3f64PLH3rQCwO-39" value="Client" style="swimlane;fontStyle=1;align=center;verticalAlign=middle;childLayout=stackLayout;horizontal=1;startSize=29;horizontalStack=0;resizeParent=1;resizeParentMax=0;resizeLast=0;collapsible=0;marginBottom=0;html=1;whiteSpace=wrap;" parent="1" vertex="1">
          <mxGeometry x="-43" y="1195" width="202" height="204" as="geometry" />
        </mxCell>
        <mxCell id="CxRBxOx3f64PLH3rQCwO-40" value="Id" style="text;html=1;strokeColor=none;fillColor=none;align=center;verticalAlign=middle;spacingLeft=4;spacingRight=4;overflow=hidden;rotatable=0;points=[[0,0.5],[1,0.5]];portConstraint=eastwest;whiteSpace=wrap;" parent="CxRBxOx3f64PLH3rQCwO-39" vertex="1">
          <mxGeometry y="29" width="202" height="25" as="geometry" />
        </mxCell>
        <mxCell id="CxRBxOx3f64PLH3rQCwO-57" value="CategoryId" style="text;html=1;strokeColor=none;fillColor=none;align=center;verticalAlign=middle;spacingLeft=4;spacingRight=4;overflow=hidden;rotatable=0;points=[[0,0.5],[1,0.5]];portConstraint=eastwest;whiteSpace=wrap;" parent="CxRBxOx3f64PLH3rQCwO-39" vertex="1">
          <mxGeometry y="54" width="202" height="25" as="geometry" />
        </mxCell>
        <mxCell id="CxRBxOx3f64PLH3rQCwO-41" value="Key" style="text;html=1;strokeColor=none;fillColor=none;align=center;verticalAlign=middle;spacingLeft=4;spacingRight=4;overflow=hidden;rotatable=0;points=[[0,0.5],[1,0.5]];portConstraint=eastwest;whiteSpace=wrap;" parent="CxRBxOx3f64PLH3rQCwO-39" vertex="1">
          <mxGeometry y="79" width="202" height="25" as="geometry" />
        </mxCell>
        <mxCell id="CxRBxOx3f64PLH3rQCwO-42" value="Name" style="text;html=1;strokeColor=none;fillColor=none;align=center;verticalAlign=middle;spacingLeft=4;spacingRight=4;overflow=hidden;rotatable=0;points=[[0,0.5],[1,0.5]];portConstraint=eastwest;whiteSpace=wrap;" parent="CxRBxOx3f64PLH3rQCwO-39" vertex="1">
          <mxGeometry y="104" width="202" height="25" as="geometry" />
        </mxCell>
        <mxCell id="CxRBxOx3f64PLH3rQCwO-43" value="Last Name" style="text;html=1;strokeColor=none;fillColor=none;align=center;verticalAlign=middle;spacingLeft=4;spacingRight=4;overflow=hidden;rotatable=0;points=[[0,0.5],[1,0.5]];portConstraint=eastwest;whiteSpace=wrap;" parent="CxRBxOx3f64PLH3rQCwO-39" vertex="1">
          <mxGeometry y="129" width="202" height="25" as="geometry" />
        </mxCell>
        <mxCell id="CxRBxOx3f64PLH3rQCwO-44" value="DNI" style="text;html=1;strokeColor=none;fillColor=none;align=center;verticalAlign=middle;spacingLeft=4;spacingRight=4;overflow=hidden;rotatable=0;points=[[0,0.5],[1,0.5]];portConstraint=eastwest;whiteSpace=wrap;" parent="CxRBxOx3f64PLH3rQCwO-39" vertex="1">
          <mxGeometry y="154" width="202" height="25" as="geometry" />
        </mxCell>
        <mxCell id="CxRBxOx3f64PLH3rQCwO-78" value="TucsonSubscriptionNumber" style="text;html=1;strokeColor=none;fillColor=none;align=center;verticalAlign=middle;spacingLeft=4;spacingRight=4;overflow=hidden;rotatable=0;points=[[0,0.5],[1,0.5]];portConstraint=eastwest;whiteSpace=wrap;" parent="CxRBxOx3f64PLH3rQCwO-39" vertex="1">
          <mxGeometry y="179" width="202" height="25" as="geometry" />
        </mxCell>
        <mxCell id="CxRBxOx3f64PLH3rQCwO-46" value="Category" style="swimlane;fontStyle=1;align=center;verticalAlign=middle;childLayout=stackLayout;horizontal=1;startSize=29;horizontalStack=0;resizeParent=1;resizeParentMax=0;resizeLast=0;collapsible=0;marginBottom=0;html=1;whiteSpace=wrap;" parent="1" vertex="1">
          <mxGeometry x="-304" y="1220" width="140" height="79" as="geometry" />
        </mxCell>
        <mxCell id="CxRBxOx3f64PLH3rQCwO-58" value="Id" style="text;html=1;strokeColor=none;fillColor=none;align=center;verticalAlign=middle;spacingLeft=4;spacingRight=4;overflow=hidden;rotatable=0;points=[[0,0.5],[1,0.5]];portConstraint=eastwest;whiteSpace=wrap;" parent="CxRBxOx3f64PLH3rQCwO-46" vertex="1">
          <mxGeometry y="29" width="140" height="25" as="geometry" />
        </mxCell>
        <mxCell id="CxRBxOx3f64PLH3rQCwO-47" value="Name" style="text;html=1;strokeColor=none;fillColor=none;align=center;verticalAlign=middle;spacingLeft=4;spacingRight=4;overflow=hidden;rotatable=0;points=[[0,0.5],[1,0.5]];portConstraint=eastwest;whiteSpace=wrap;" parent="CxRBxOx3f64PLH3rQCwO-46" vertex="1">
          <mxGeometry y="54" width="140" height="25" as="geometry" />
        </mxCell>
        <mxCell id="CxRBxOx3f64PLH3rQCwO-50" value="Reservation" style="swimlane;fontStyle=1;align=center;verticalAlign=middle;childLayout=stackLayout;horizontal=1;startSize=29;horizontalStack=0;resizeParent=1;resizeParentMax=0;resizeLast=0;collapsible=0;marginBottom=0;html=1;whiteSpace=wrap;" parent="1" vertex="1">
          <mxGeometry x="269" y="1170" width="140" height="154" as="geometry" />
        </mxCell>
        <mxCell id="CxRBxOx3f64PLH3rQCwO-60" value="Id" style="text;html=1;strokeColor=none;fillColor=none;align=center;verticalAlign=middle;spacingLeft=4;spacingRight=4;overflow=hidden;rotatable=0;points=[[0,0.5],[1,0.5]];portConstraint=eastwest;whiteSpace=wrap;" parent="CxRBxOx3f64PLH3rQCwO-50" vertex="1">
          <mxGeometry y="29" width="140" height="25" as="geometry" />
        </mxCell>
        <mxCell id="Vk5LHGMb-VWgU5edFKiS-1" value="ClientId" style="text;html=1;strokeColor=none;fillColor=none;align=center;verticalAlign=middle;spacingLeft=4;spacingRight=4;overflow=hidden;rotatable=0;points=[[0,0.5],[1,0.5]];portConstraint=eastwest;whiteSpace=wrap;" vertex="1" parent="CxRBxOx3f64PLH3rQCwO-50">
          <mxGeometry y="54" width="140" height="25" as="geometry" />
        </mxCell>
        <mxCell id="CxRBxOx3f64PLH3rQCwO-52" value="TableId" style="text;html=1;strokeColor=none;fillColor=none;align=center;verticalAlign=middle;spacingLeft=4;spacingRight=4;overflow=hidden;rotatable=0;points=[[0,0.5],[1,0.5]];portConstraint=eastwest;whiteSpace=wrap;" parent="CxRBxOx3f64PLH3rQCwO-50" vertex="1">
          <mxGeometry y="79" width="140" height="25" as="geometry" />
        </mxCell>
        <mxCell id="Vk5LHGMb-VWgU5edFKiS-2" value="Date" style="text;html=1;strokeColor=none;fillColor=none;align=center;verticalAlign=middle;spacingLeft=4;spacingRight=4;overflow=hidden;rotatable=0;points=[[0,0.5],[1,0.5]];portConstraint=eastwest;whiteSpace=wrap;" vertex="1" parent="CxRBxOx3f64PLH3rQCwO-50">
          <mxGeometry y="104" width="140" height="25" as="geometry" />
        </mxCell>
        <mxCell id="CxRBxOx3f64PLH3rQCwO-79" value="DaytimeCode" style="text;html=1;strokeColor=none;fillColor=none;align=center;verticalAlign=middle;spacingLeft=4;spacingRight=4;overflow=hidden;rotatable=0;points=[[0,0.5],[1,0.5]];portConstraint=eastwest;whiteSpace=wrap;" parent="CxRBxOx3f64PLH3rQCwO-50" vertex="1">
          <mxGeometry y="129" width="140" height="25" as="geometry" />
        </mxCell>
        <mxCell id="CxRBxOx3f64PLH3rQCwO-55" value="WaitingList" style="swimlane;fontStyle=1;align=center;verticalAlign=middle;childLayout=stackLayout;horizontal=1;startSize=29;horizontalStack=0;resizeParent=1;resizeParentMax=0;resizeLast=0;collapsible=0;marginBottom=0;html=1;whiteSpace=wrap;" parent="1" vertex="1">
          <mxGeometry x="-11" y="1056" width="140" height="79" as="geometry" />
        </mxCell>
        <mxCell id="CxRBxOx3f64PLH3rQCwO-56" value="Id" style="text;html=1;strokeColor=none;fillColor=none;align=center;verticalAlign=middle;spacingLeft=4;spacingRight=4;overflow=hidden;rotatable=0;points=[[0,0.5],[1,0.5]];portConstraint=eastwest;whiteSpace=wrap;" parent="CxRBxOx3f64PLH3rQCwO-55" vertex="1">
          <mxGeometry y="29" width="140" height="25" as="geometry" />
        </mxCell>
        <mxCell id="CxRBxOx3f64PLH3rQCwO-72" value="ClientId" style="text;html=1;strokeColor=none;fillColor=none;align=center;verticalAlign=middle;spacingLeft=4;spacingRight=4;overflow=hidden;rotatable=0;points=[[0,0.5],[1,0.5]];portConstraint=eastwest;whiteSpace=wrap;" parent="CxRBxOx3f64PLH3rQCwO-55" vertex="1">
          <mxGeometry y="54" width="140" height="25" as="geometry" />
        </mxCell>
        <mxCell id="CxRBxOx3f64PLH3rQCwO-59" style="edgeStyle=orthogonalEdgeStyle;rounded=0;orthogonalLoop=1;jettySize=auto;html=1;" parent="1" source="CxRBxOx3f64PLH3rQCwO-57" target="CxRBxOx3f64PLH3rQCwO-58" edge="1">
          <mxGeometry relative="1" as="geometry" />
        </mxCell>
        <mxCell id="CxRBxOx3f64PLH3rQCwO-76" style="edgeStyle=orthogonalEdgeStyle;rounded=0;orthogonalLoop=1;jettySize=auto;html=1;entryX=0;entryY=0.5;entryDx=0;entryDy=0;" parent="1" source="CxRBxOx3f64PLH3rQCwO-72" target="CxRBxOx3f64PLH3rQCwO-40" edge="1">
          <mxGeometry relative="1" as="geometry" />
        </mxCell>
        <mxCell id="CxRBxOx3f64PLH3rQCwO-77" style="edgeStyle=orthogonalEdgeStyle;rounded=0;orthogonalLoop=1;jettySize=auto;html=1;" parent="1" source="CxRBxOx3f64PLH3rQCwO-52" target="CxRBxOx3f64PLH3rQCwO-71" edge="1">
          <mxGeometry relative="1" as="geometry" />
        </mxCell>
        <mxCell id="CxRBxOx3f64PLH3rQCwO-87" value="Daytime" style="swimlane;fontStyle=1;align=center;verticalAlign=middle;childLayout=stackLayout;horizontal=1;startSize=29;horizontalStack=0;resizeParent=1;resizeParentMax=0;resizeLast=0;collapsible=0;marginBottom=0;html=1;whiteSpace=wrap;" parent="1" vertex="1">
          <mxGeometry x="589" y="1434" width="140" height="79" as="geometry" />
        </mxCell>
        <mxCell id="CxRBxOx3f64PLH3rQCwO-88" value="Code" style="text;html=1;strokeColor=none;fillColor=none;align=center;verticalAlign=middle;spacingLeft=4;spacingRight=4;overflow=hidden;rotatable=0;points=[[0,0.5],[1,0.5]];portConstraint=eastwest;whiteSpace=wrap;" parent="CxRBxOx3f64PLH3rQCwO-87" vertex="1">
          <mxGeometry y="29" width="140" height="25" as="geometry" />
        </mxCell>
        <mxCell id="CxRBxOx3f64PLH3rQCwO-92" value="Name" style="text;html=1;strokeColor=none;fillColor=none;align=center;verticalAlign=middle;spacingLeft=4;spacingRight=4;overflow=hidden;rotatable=0;points=[[0,0.5],[1,0.5]];portConstraint=eastwest;whiteSpace=wrap;" parent="CxRBxOx3f64PLH3rQCwO-87" vertex="1">
          <mxGeometry y="54" width="140" height="25" as="geometry" />
        </mxCell>
        <mxCell id="CxRBxOx3f64PLH3rQCwO-93" style="edgeStyle=orthogonalEdgeStyle;rounded=0;orthogonalLoop=1;jettySize=auto;html=1;" parent="1" source="CxRBxOx3f64PLH3rQCwO-79" target="CxRBxOx3f64PLH3rQCwO-87" edge="1">
          <mxGeometry relative="1" as="geometry">
            <Array as="points">
              <mxPoint x="460" y="1469" />
            </Array>
          </mxGeometry>
        </mxCell>
        <mxCell id="Vk5LHGMb-VWgU5edFKiS-3" style="edgeStyle=orthogonalEdgeStyle;rounded=0;orthogonalLoop=1;jettySize=auto;html=1;entryX=1;entryY=0.5;entryDx=0;entryDy=0;" edge="1" parent="1" source="Vk5LHGMb-VWgU5edFKiS-1" target="CxRBxOx3f64PLH3rQCwO-40">
          <mxGeometry relative="1" as="geometry" />
        </mxCell>
      </root>
    </mxGraphModel>
  </diagram>
</mxfile>
